Facade-RegularItalic.ufo
<glyph name="exclam" format="2">
  <advance width="480"/>
  <unicode hex="0021"/>
  <outline>
    <contour>
      <point x="191" y="300" type="line"/>
      <point x="287" y="300" type="line"/>
      <point x="444" y="900" type="line"/>
      <point x="336" y="900" type="line"/>
    </contour>
    <contour>
      <point x="172" y="-12" type="curve" smooth="yes"/>
      <point x="217" y="-12"/>
      <point x="256" y="27"/>
      <point x="256" y="72" type="curve" smooth="yes"/>
      <point x="256" y="110"/>
      <point x="226" y="138"/>
      <point x="190" y="138" type="curve" smooth="yes"/>
      <point x="145" y="138"/>
      <point x="106" y="99"/>
      <point x="106" y="54" type="curve" smooth="yes"/>
      <point x="106" y="17"/>
      <point x="136" y="-12"/>
    </contour>
  </outline>
</glyph>
<glyph name="numbersign" format="2">
  <advance width="750"/>
  <unicode hex="0023"/>
  <outline>
    <contour>
      <point x="36" y="0" type="line"/>
      <point x="132" y="0" type="line"/>
      <point x="229" y="234" type="line"/>
      <point x="415" y="234" type="line"/>
      <point x="318" y="0" type="line"/>
      <point x="414" y="0" type="line"/>
      <point x="511" y="234" type="line"/>
      <point x="629" y="234" type="line"/>
      <point x="664" y="318" type="line"/>
      <point x="546" y="318" type="line"/>
      <point x="654" y="582" type="line"/>
      <point x="768" y="582" type="line"/>
      <point x="803" y="666" type="line"/>
      <point x="689" y="666" type="line"/>
      <point x="786" y="900" type="line"/>
      <point x="690" y="900" type="line"/>
      <point x="593" y="666" type="line"/>
      <point x="407" y="666" type="line"/>
      <point x="504" y="900" type="line"/>
      <point x="408" y="900" type="line"/>
      <point x="311" y="666" type="line"/>
      <point x="195" y="666" type="line"/>
      <point x="160" y="582" type="line"/>
      <point x="276" y="582" type="line"/>
      <point x="168" y="318" type="line"/>
      <point x="56" y="318" type="line"/>
      <point x="21" y="234" type="line"/>
      <point x="133" y="234" type="line"/>
    </contour>
    <contour>
      <point x="258" y="314" type="line"/>
      <point x="370" y="586" type="line"/>
      <point x="564" y="586" type="line"/>
      <point x="452" y="314" type="line"/>
    </contour>
  </outline>
</glyph>
<glyph name="dollar" format="2">
  <advance width="750"/>
  <unicode hex="0024"/>
  <outline>
    <contour>
      <point x="223" y="-120" type="line"/>
      <point x="307" y="-120" type="line"/>
      <point x="584" y="990" type="line"/>
      <point x="500" y="990" type="line"/>
    </contour>
    <contour>
      <point x="306" y="-6" type="curve" smooth="yes"/>
      <point x="473" y="-6"/>
      <point x="610" y="123"/>
      <point x="610" y="276" type="curve" smooth="yes"/>
      <point x="610" y="359"/>
      <point x="570" y="426"/>
      <point x="487" y="489" type="curve" smooth="yes"/>
      <point x="397" y="558" type="line" smooth="yes"/>
      <point x="353" y="592"/>
      <point x="329" y="628"/>
      <point x="329" y="670" type="curve" smooth="yes"/>
      <point x="329" y="746"/>
      <point x="393" y="807"/>
      <point x="467" y="807" type="curve" smooth="yes"/>
      <point x="542" y="807"/>
      <point x="614" y="751"/>
      <point x="642" y="670" type="curve"/>
      <point x="708" y="801" type="line"/>
      <point x="655" y="866"/>
      <point x="568" y="906"/>
      <point x="480" y="906" type="curve" smooth="yes"/>
      <point x="333" y="906"/>
      <point x="214" y="794"/>
      <point x="214" y="658" type="curve" smooth="yes"/>
      <point x="214" y="582"/>
      <point x="252" y="524"/>
      <point x="323" y="469" type="curve" smooth="yes"/>
      <point x="411" y="400" type="line" smooth="yes"/>
      <point x="465" y="358"/>
      <point x="496" y="316"/>
      <point x="496" y="263" type="curve" smooth="yes"/>
      <point x="496" y="174"/>
      <point x="412" y="95"/>
      <point x="316" y="95" type="curve" smooth="yes"/>
      <point x="223" y="95"/>
      <point x="141" y="169"/>
      <point x="119" y="267" type="curve"/>
      <point x="53" y="135" type="line"/>
      <point x="99" y="49"/>
      <point x="200" y="-6"/>
    </contour>
  </outline>
</glyph>
<glyph name="two" format="2">
  <advance width="750"/>
  <unicode hex="0032"/>
  <outline>
    <contour>
      <point x="34" y="0" type="line"/>
      <point x="564" y="0" type="line"/>
      <point x="589" y="102" type="line"/>
      <point x="210" y="102" type="line"/>
      <point x="222" y="65" type="line"/>
      <point x="592" y="446" type="line" smooth="yes"/>
      <point x="681" y="537"/>
      <point x="710" y="606"/>
      <point x="710" y="684" type="curve" smooth="yes"/>
      <point x="710" y="813"/>
      <point x="607" y="912"/>
      <point x="473" y="912" type="curve" smooth="yes"/>
      <point x="319" y="912"/>
      <point x="181" y="778"/>
      <point x="181" y="630" type="curve" smooth="yes"/>
      <point x="181" y="599"/>
      <point x="187" y="567"/>
      <point x="199" y="534" type="curve"/>
      <point x="334" y="534" type="line"/>
      <point x="304" y="564"/>
      <point x="289" y="599"/>
      <point x="289" y="638" type="curve" smooth="yes"/>
      <point x="289" y="730"/>
      <point x="369" y="810"/>
      <point x="463" y="810" type="curve" smooth="yes"/>
      <point x="541" y="810"/>
      <point x="602" y="751"/>
      <point x="602" y="673" type="curve" smooth="yes"/>
      <point x="602" y="624"/>
      <point x="582" y="581"/>
      <point x="515" y="510" type="curve" smooth="yes"/>
    </contour>
  </outline>
</glyph>
<glyph name="three" format="2">
  <advance width="750"/>
  <unicode hex="0033"/>
  <outline>
    <contour>
      <point x="302" y="-12" type="curve" smooth="yes"/>
      <point x="492" y="-12"/>
      <point x="653" y="152"/>
      <point x="653" y="329" type="curve" smooth="yes"/>
      <point x="653" y="445"/>
      <point x="581" y="539"/>
      <point x="475" y="574" type="curve"/>
      <point x="732" y="900" type="line"/>
      <point x="288" y="900" type="line"/>
      <point x="265" y="804" type="line"/>
      <point x="591" y="804" type="line"/>
      <point x="569" y="844" type="line"/>
      <point x="287" y="484" type="line"/>
      <point x="310" y="492"/>
      <point x="336" y="498"/>
      <point x="363" y="498" type="curve" smooth="yes"/>
      <point x="469" y="498"/>
      <point x="544" y="417"/>
      <point x="544" y="319" type="curve" smooth="yes"/>
      <point x="544" y="201"/>
      <point x="439" y="90"/>
      <point x="313" y="90" type="curve" smooth="yes"/>
      <point x="198" y="90"/>
      <point x="131" y="181"/>
      <point x="136" y="295" type="curve"/>
      <point x="40" y="174" type="line"/>
      <point x="78" y="53"/>
      <point x="191" y="-12"/>
    </contour>
  </outline>
</glyph>
<glyph name="equal" format="2">
  <advance width="750"/>
  <unicode hex="003D"/>
  <outline>
    <contour>
      <point x="88" y="291" type="line"/>
      <point x="658" y="291" type="line"/>
      <point x="680" y="381" type="line"/>
      <point x="110" y="381" type="line"/>
    </contour>
    <contour>
      <point x="144" y="519" type="line"/>
      <point x="714" y="519" type="line"/>
      <point x="736" y="609" type="line"/>
      <point x="166" y="609" type="line"/>
    </contour>
  </outline>
</glyph>
<glyph name="question" format="2">
  <advance width="480"/>
  <unicode hex="003F"/>
  <outline>
    <contour>
      <point x="192" y="300" type="curve"/>
      <point x="289" y="300" type="line"/>
      <point x="346" y="485"/>
      <point x="551" y="552"/>
      <point x="551" y="726" type="curve" smooth="yes"/>
      <point x="551" y="845"/>
      <point x="456" y="912"/>
      <point x="345" y="912" type="curve" smooth="yes"/>
      <point x="305" y="912"/>
      <point x="268" y="903"/>
      <point x="237" y="887" type="curve"/>
      <point x="205" y="759" type="line"/>
      <point x="242" y="793"/>
      <point x="288" y="812"/>
      <point x="331" y="812" type="curve" smooth="yes"/>
      <point x="385" y="812"/>
      <point x="439" y="780"/>
      <point x="439" y="707" type="curve" smooth="yes"/>
      <point x="439" y="566"/>
      <point x="238" y="523"/>
    </contour>
    <contour>
      <point x="172" y="-12" type="curve" smooth="yes"/>
      <point x="217" y="-12"/>
      <point x="256" y="27"/>
      <point x="256" y="72" type="curve" smooth="yes"/>
      <point x="256" y="110"/>
      <point x="226" y="138"/>
      <point x="190" y="138" type="curve" smooth="yes"/>
      <point x="145" y="138"/>
      <point x="106" y="99"/>
      <point x="106" y="54" type="curve" smooth="yes"/>
      <point x="106" y="17"/>
      <point x="136" y="-12"/>
    </contour>
  </outline>
</glyph>
<glyph name="A" format="2">
  <advance width="800"/>
  <unicode hex="0041"/>
  <anchor x="325" y="0" name="bottom"/>
  <anchor x="606" y="0" name="ogonek"/>
  <anchor x="546" y="900" name="top"/>
  <anchor x="222" y="720" name="top-vertical"/>
  <outline>
    <contour>
      <point x="-57" y="0" type="line"/>
      <point x="68" y="0" type="line"/>
      <point x="416" y="540" type="line"/>
      <point x="446" y="586"/>
      <point x="469" y="624"/>
      <point x="500" y="686" type="curve"/>
      <point x="501" y="624"/>
      <point x="507" y="585"/>
      <point x="513" y="540" type="curve"/>
      <point x="596" y="0" type="line"/>
      <point x="707" y="0" type="line"/>
      <point x="554" y="930" type="line"/>
      <point x="552" y="930" type="line"/>
    </contour>
    <contour>
      <point x="201" y="267" type="line"/>
      <point x="573" y="267" type="line"/>
      <point x="562" y="362" type="line"/>
      <point x="261" y="362" type="line"/>
    </contour>
  </outline>
</glyph>
<glyph name="C" format="2">
  <advance width="900"/>
  <unicode hex="0043"/>
  <anchor x="456" y="0" name="bottom"/>
  <anchor x="678" y="900" name="top"/>
  <outline>
    <contour>
      <point x="512" y="-18" type="curve" smooth="yes"/>
      <point x="626" y="-18"/>
      <point x="736" y="26"/>
      <point x="827" y="96" type="curve"/>
      <point x="827" y="246" type="line"/>
      <point x="752" y="152"/>
      <point x="641" y="90"/>
      <point x="523" y="90" type="curve" smooth="yes"/>
      <point x="349" y="90"/>
      <point x="216" y="225"/>
      <point x="216" y="403" type="curve" smooth="yes"/>
      <point x="216" y="616"/>
      <point x="404" y="810"/>
      <point x="611" y="810" type="curve" smooth="yes"/>
      <point x="723" y="810"/>
      <point x="818" y="754"/>
      <point x="871" y="667" type="curve"/>
      <point x="929" y="786" type="line"/>
      <point x="854" y="868"/>
      <point x="746" y="918"/>
      <point x="622" y="918" type="curve" smooth="yes"/>
      <point x="347" y="918"/>
      <point x="98" y="669"/>
      <point x="98" y="395" type="curve" smooth="yes"/>
      <point x="98" y="162"/>
      <point x="278" y="-18"/>
    </contour>
  </outline>
</glyph>
<glyph name="D" format="2">
  <advance width="960"/>
  <unicode hex="0044"/>
  <anchor x="332" y="0" name="bottom"/>
  <anchor x="222" y="480" name="center"/>
  <anchor x="557" y="914" name="top"/>
  <outline>
    <contour>
      <point x="51" y="0" type="line"/>
      <point x="412" y="0" type="line" smooth="yes"/>
      <point x="687" y="0"/>
      <point x="936" y="231"/>
      <point x="936" y="505" type="curve" smooth="yes"/>
      <point x="936" y="738"/>
      <point x="756" y="900"/>
      <point x="522" y="900" type="curve" smooth="yes"/>
      <point x="276" y="900" type="line"/>
    </contour>
    <contour>
      <point x="190" y="102" type="line"/>
      <point x="365" y="798" type="line"/>
      <point x="499" y="798" type="line" smooth="yes"/>
      <point x="685" y="798"/>
      <point x="818" y="675"/>
      <point x="818" y="497" type="curve" smooth="yes"/>
      <point x="818" y="284"/>
      <point x="630" y="102"/>
      <point x="411" y="102" type="curve" smooth="yes"/>
    </contour>
  </outline>
</glyph>
<glyph name="I" format="2">
  <advance width="390"/>
  <unicode hex="0049"/>
  <anchor x="120" y="0" name="bottom"/>
  <anchor x="120" y="0" name="ogonek"/>
  <anchor x="345" y="900" name="top"/>
  <anchor x="150" y="900" name="topleft"/>
  <outline>
    <contour>
      <point x="63" y="0" type="line"/>
      <point x="177" y="0" type="line"/>
      <point x="402" y="900" type="line"/>
      <point x="288" y="900" type="line"/>
    </contour>
  </outline>
</glyph>
<glyph name="K" format="2">
  <advance width="780"/>
  <unicode hex="004B"/>
  <anchor x="363" y="0" name="bottom"/>
  <anchor x="547" y="900" name="top"/>
  <outline>
    <contour>
      <point x="577" y="0" type="line"/>
      <point x="700" y="0" type="line"/>
      <point x="424" y="621" type="line"/>
      <point x="423" y="540" type="line"/>
      <point x="833" y="900" type="line"/>
      <point x="689" y="900" type="line"/>
      <point x="323" y="579" type="line"/>
    </contour>
    <contour>
      <point x="51" y="0" type="line"/>
      <point x="165" y="0" type="line"/>
      <point x="390" y="900" type="line"/>
      <point x="276" y="900" type="line"/>
    </contour>
  </outline>
</glyph>
<glyph name="L" format="2">
  <advance width="600"/>
  <unicode hex="004C"/>
  <anchor x="264" y="0" name="bottom"/>
  <anchor x="219" y="450" name="center"/>
  <anchor x="463" y="480" name="periodcentered"/>
  <anchor x="333" y="900" name="top"/>
  <anchor x="432" y="900" name="topright"/>
  <outline>
    <contour>
      <point x="51" y="0" type="line"/>
      <point x="477" y="0" type="line"/>
      <point x="502" y="102" type="line"/>
      <point x="190" y="102" type="line"/>
      <point x="390" y="900" type="line"/>
      <point x="276" y="900" type="line"/>
    </contour>
  </outline>
</glyph>
<glyph name="Q" format="2">
  <advance width="1060"/>
  <unicode hex="0051"/>
  <outline>
    <contour>
      <point x="512" y="-18" type="curve" smooth="yes"/>
      <point x="787" y="-18"/>
      <point x="1036" y="231"/>
      <point x="1036" y="505" type="curve" smooth="yes"/>
      <point x="1036" y="738"/>
      <point x="856" y="918"/>
      <point x="622" y="918" type="curve" smooth="yes"/>
      <point x="347" y="918"/>
      <point x="98" y="669"/>
      <point x="98" y="395" type="curve" smooth="yes"/>
      <point x="98" y="162"/>
      <point x="278" y="-18"/>
    </contour>
    <contour>
      <point x="523" y="90" type="curve" smooth="yes"/>
      <point x="349" y="90"/>
      <point x="216" y="225"/>
      <point x="216" y="403" type="curve" smooth="yes"/>
      <point x="216" y="616"/>
      <point x="404" y="810"/>
      <point x="611" y="810" type="curve" smooth="yes"/>
      <point x="785" y="810"/>
      <point x="918" y="675"/>
      <point x="918" y="497" type="curve" smooth="yes"/>
      <point x="918" y="284"/>
      <point x="730" y="90"/>
    </contour>
    <contour>
      <point x="785" y="-30" type="line"/>
      <point x="907" y="-30" type="line"/>
      <point x="626" y="450" type="line"/>
      <point x="500" y="450" type="line"/>
      <point x="699" y="111" type="line"/>
      <point x="707" y="105" type="line"/>
    </contour>
  </outline>
</glyph>
<glyph name="R" format="2">
  <advance width="780"/>
  <unicode hex="0052"/>
  <anchor x="364" y="0" name="bottom"/>
  <anchor x="472" y="900" name="top"/>
  <outline>
    <contour>
      <point x="54" y="0" type="line"/>
      <point x="168" y="0" type="line"/>
      <point x="393" y="900" type="line"/>
      <point x="279" y="900" type="line"/>
    </contour>
    <contour>
      <point x="216" y="414" type="line"/>
      <point x="436" y="414" type="line" smooth="yes"/>
      <point x="585" y="414"/>
      <point x="719" y="539"/>
      <point x="719" y="687" type="curve" smooth="yes"/>
      <point x="719" y="813"/>
      <point x="622" y="900"/>
      <point x="495" y="900" type="curve" smooth="yes"/>
      <point x="336" y="900" type="line"/>
      <point x="311" y="798" type="line"/>
      <point x="467" y="798" type="line" smooth="yes"/>
      <point x="556" y="798"/>
      <point x="611" y="747"/>
      <point x="611" y="673" type="curve" smooth="yes"/>
      <point x="611" y="585"/>
      <point x="533" y="510"/>
      <point x="431" y="510" type="curve" smooth="yes"/>
      <point x="240" y="510" type="line"/>
    </contour>
    <contour>
      <point x="576" y="0" type="line"/>
      <point x="699" y="0" type="line"/>
      <point x="486" y="480" type="line"/>
      <point x="365" y="480" type="line"/>
    </contour>
  </outline>
</glyph>
<glyph name="T" format="2">
  <advance width="690"/>
  <unicode hex="0054"/>
  <anchor x="270" y="0" name="bottom"/>
  <anchor x="381" y="450" name="center"/>
  <anchor x="495" y="900" name="top"/>
  <outline>
    <contour>
      <point x="173" y="798" type="line"/>
      <point x="767" y="798" type="line"/>
      <point x="792" y="900" type="line"/>
      <point x="198" y="900" type="line"/>
    </contour>
    <contour>
      <point x="213" y="0" type="line"/>
      <point x="327" y="0" type="line"/>
      <point x="552" y="900" type="line"/>
      <point x="438" y="900" type="line"/>
    </contour>
  </outline>
</glyph>
<glyph name="X" format="2">
  <advance width="870"/>
  <unicode hex="0058"/>
  <outline>
    <contour>
      <point x="-69" y="0" type="line"/>
      <point x="76" y="0" type="line"/>
      <point x="354" y="300" type="line" smooth="yes"/>
      <point x="406" y="356"/>
      <point x="458" y="411"/>
      <point x="532" y="517" type="curve"/>
      <point x="462" y="517" type="line"/>
      <point x="485" y="411"/>
      <point x="510" y="356"/>
      <point x="534" y="300" type="curve" smooth="yes"/>
      <point x="662" y="0" type="line"/>
      <point x="789" y="0" type="line"/>
      <point x="558" y="526" type="line"/>
      <point x="909" y="900" type="line"/>
      <point x="774" y="900" type="line"/>
      <point x="606" y="720" type="line" smooth="yes"/>
      <point x="563" y="674"/>
      <point x="524" y="627"/>
      <point x="476" y="561" type="curve"/>
      <point x="505" y="561" type="line"/>
      <point x="492" y="627"/>
      <point x="474" y="674"/>
      <point x="454" y="720" type="curve" smooth="yes"/>
      <point x="378" y="900" type="line"/>
      <point x="255" y="900" type="line"/>
      <point x="421" y="522" type="line"/>
    </contour>
  </outline>
</glyph>
<glyph name="bracketright" format="2">
  <advance width="480"/>
  <unicode hex="005D"/>
  <outline>
    <contour>
      <point x="-60" y="-180" type="line"/>
      <point x="240" y="-180" type="line"/>
      <point x="525" y="960" type="line"/>
      <point x="225" y="960" type="line"/>
      <point x="203" y="870" type="line"/>
      <point x="401" y="870" type="line"/>
      <point x="160" y="-90" type="line"/>
      <point x="-38" y="-90" type="line"/>
    </contour>
  </outline>
</glyph>
<glyph name="asciicircum" format="2">
  <advance width="750"/>
  <unicode hex="005E"/>
  <outline>
    <contour>
      <point x="55" y="192" type="line"/>
      <point x="159" y="192" type="line"/>
      <point x="378" y="492" type="line" smooth="yes"/>
      <point x="405" y="529"/>
      <point x="433" y="572"/>
      <point x="460" y="613" type="curve"/>
      <point x="466" y="572"/>
      <point x="472" y="529"/>
      <point x="481" y="492" type="curve" smooth="yes"/>
      <point x="551" y="192" type="line"/>
      <point x="641" y="192" type="line"/>
      <point x="497" y="792" type="line"/>
    </contour>
  </outline>
</glyph>
<glyph name="underscore" format="2">
  <advance width="720"/>
  <unicode hex="005F"/>
  <outline>
    <contour>
      <point x="-126" y="-180" type="line"/>
      <point x="606" y="-180" type="line"/>
      <point x="628" y="-90" type="line"/>
      <point x="-104" y="-90" type="line"/>
    </contour>
  </outline>
</glyph>
<glyph name="c" format="2">
  <advance width="630"/>
  <unicode hex="0063"/>
  <anchor x="371" y="0" name="bottom"/>
  <anchor x="371" y="600" name="top"/>
  <outline>
    <contour>
      <point x="339" y="-12" type="curve" smooth="yes"/>
      <point x="420" y="-12"/>
      <point x="492" y="15"/>
      <point x="551" y="59" type="curve"/>
      <point x="551" y="204" type="line"/>
      <point x="509" y="137"/>
      <point x="434" y="90"/>
      <point x="350" y="90" type="curve" smooth="yes"/>
      <point x="238" y="90"/>
      <point x="164" y="173"/>
      <point x="164" y="274" type="curve" smooth="yes"/>
      <point x="164" y="398"/>
      <point x="275" y="510"/>
      <point x="402" y="510" type="curve" smooth="yes"/>
      <point x="485" y="510"/>
      <point x="545" y="466"/>
      <point x="572" y="404" type="curve"/>
      <point x="629" y="521" type="line"/>
      <point x="578" y="577"/>
      <point x="503" y="612"/>
      <point x="419" y="612" type="curve" smooth="yes"/>
      <point x="227" y="612"/>
      <point x="54" y="447"/>
      <point x="54" y="263" type="curve" smooth="yes"/>
      <point x="54" y="106"/>
      <point x="178" y="-12"/>
    </contour>
  </outline>
</glyph>
<glyph name="d" format="2">
  <advance width="760"/>
  <unicode hex="0064"/>
  <anchor x="296" y="0" name="bottom"/>
  <anchor x="727" y="780" name="center"/>
  <anchor x="444" y="600" name="top"/>
  <anchor x="829" y="960" name="topright"/>
  <outline>
    <contour>
      <point x="311" y="-8" type="curve" smooth="yes"/>
      <point x="402" y="-8"/>
      <point x="484" y="42"/>
      <point x="538" y="112" type="curve"/>
      <point x="528" y="150" type="line"/>
      <point x="489" y="0" type="line"/>
      <point x="589" y="0" type="line"/>
      <point x="829" y="960" type="line"/>
      <point x="721" y="960" type="line"/>
      <point x="594" y="453" type="line"/>
      <point x="643" y="449" type="line"/>
      <point x="601" y="545"/>
      <point x="507" y="608"/>
      <point x="396" y="608" type="curve" smooth="yes"/>
      <point x="216" y="608"/>
      <point x="54" y="445"/>
      <point x="54" y="263" type="curve" smooth="yes"/>
      <point x="54" y="108"/>
      <point x="173" y="-8"/>
    </contour>
    <contour>
      <point x="341" y="90" type="curve" smooth="yes"/>
      <point x="236" y="90"/>
      <point x="164" y="175"/>
      <point x="164" y="274" type="curve" smooth="yes"/>
      <point x="164" y="397"/>
      <point x="275" y="510"/>
      <point x="395" y="510" type="curve" smooth="yes"/>
      <point x="500" y="510"/>
      <point x="572" y="425"/>
      <point x="572" y="326" type="curve" smooth="yes"/>
      <point x="572" y="203"/>
      <point x="461" y="90"/>
    </contour>
  </outline>
</glyph>
<glyph name="e" format="2">
  <advance width="710"/>
  <unicode hex="0065"/>
  <anchor x="284" y="0" name="bottom"/>
  <anchor x="424" y="0" name="ogonek"/>
  <anchor x="432" y="600" name="top"/>
  <outline>
    <contour>
      <point x="341" y="-12" type="curve" smooth="yes"/>
      <point x="420" y="-12"/>
      <point x="492" y="15"/>
      <point x="551" y="59" type="curve"/>
      <point x="551" y="204" type="line"/>
      <point x="509" y="137"/>
      <point x="434" y="90"/>
      <point x="350" y="90" type="curve" smooth="yes"/>
      <point x="238" y="90"/>
      <point x="164" y="173"/>
      <point x="164" y="280" type="curve"/>
      <point x="158" y="280" type="line"/>
      <point x="158" y="404"/>
      <point x="267" y="516"/>
      <point x="400" y="516" type="curve" smooth="yes"/>
      <point x="520" y="516"/>
      <point x="592" y="425"/>
      <point x="563" y="314" type="curve"/>
      <point x="595" y="351" type="line"/>
      <point x="558" y="357"/>
      <point x="522" y="360"/>
      <point x="484" y="360" type="curve" smooth="yes"/>
      <point x="285" y="360" type="line" smooth="yes"/>
      <point x="228" y="360"/>
      <point x="168" y="352"/>
      <point x="108" y="340" type="curve"/>
      <point x="96" y="290" type="line"/>
      <point x="150" y="278"/>
      <point x="206" y="270"/>
      <point x="263" y="270" type="curve" smooth="yes"/>
      <point x="655" y="270" type="line"/>
      <point x="666" y="314" type="line" smooth="yes"/>
      <point x="704" y="468"/>
      <point x="603" y="612"/>
      <point x="419" y="612" type="curve" smooth="yes"/>
      <point x="222" y="612"/>
      <point x="54" y="447"/>
      <point x="54" y="263" type="curve" smooth="yes"/>
      <point x="54" y="106"/>
      <point x="177" y="-12"/>
    </contour>
  </outline>
</glyph>
<glyph name="l" format="2">
  <advance width="300"/>
  <unicode hex="006C"/>
  <anchor x="75" y="0" name="bottom"/>
  <anchor x="193" y="480" name="center"/>
  <anchor x="388" y="420" name="periodcentered"/>
  <anchor x="315" y="960" name="top"/>
  <anchor x="365" y="960" name="topright"/>
  <outline>
    <contour>
      <point x="21" y="0" type="line"/>
      <point x="129" y="0" type="line"/>
      <point x="369" y="960" type="line"/>
      <point x="261" y="960" type="line"/>
    </contour>
  </outline>
</glyph>
<glyph name="p" format="2">
  <advance width="760"/>
  <unicode hex="0070"/>
  <anchor x="314" y="0" name="bottom"/>
  <anchor x="464" y="600" name="top"/>
  <outline>
    <contour>
      <point x="-54" y="-300" type="line"/>
      <point x="54" y="-300" type="line"/>
      <point x="166" y="147" type="line"/>
      <point x="117" y="151" type="line"/>
      <point x="159" y="55"/>
      <point x="253" y="-8"/>
      <point x="364" y="-8" type="curve" smooth="yes"/>
      <point x="544" y="-8"/>
      <point x="706" y="155"/>
      <point x="706" y="337" type="curve" smooth="yes"/>
      <point x="706" y="492"/>
      <point x="587" y="608"/>
      <point x="449" y="608" type="curve" smooth="yes"/>
      <point x="358" y="608"/>
      <point x="276" y="558"/>
      <point x="222" y="488" type="curve"/>
      <point x="232" y="450" type="line"/>
      <point x="271" y="600" type="line"/>
      <point x="171" y="600" type="line"/>
    </contour>
    <contour>
      <point x="365" y="90" type="curve" smooth="yes"/>
      <point x="260" y="90"/>
      <point x="188" y="175"/>
      <point x="188" y="274" type="curve" smooth="yes"/>
      <point x="188" y="397"/>
      <point x="299" y="510"/>
      <point x="419" y="510" type="curve" smooth="yes"/>
      <point x="524" y="510"/>
      <point x="596" y="425"/>
      <point x="596" y="326" type="curve" smooth="yes"/>
      <point x="596" y="203"/>
      <point x="485" y="90"/>
    </contour>
  </outline>
</glyph>
<glyph name="s" format="2">
  <advance width="510"/>
  <unicode hex="0073"/>
  <anchor x="180" y="0" name="bottom"/>
  <anchor x="331" y="600" name="top"/>
  <outline>
    <contour>
      <point x="203" y="-8" type="curve" smooth="yes"/>
      <point x="321" y="-8"/>
      <point x="417" y="83"/>
      <point x="417" y="188" type="curve" smooth="yes"/>
      <point x="417" y="250"/>
      <point x="383" y="294"/>
      <point x="319" y="331" type="curve" smooth="yes"/>
      <point x="248" y="372" type="line" smooth="yes"/>
      <point x="224" y="386"/>
      <point x="206" y="409"/>
      <point x="206" y="438" type="curve" smooth="yes"/>
      <point x="206" y="482"/>
      <point x="247" y="518"/>
      <point x="300" y="518" type="curve" smooth="yes"/>
      <point x="360" y="518"/>
      <point x="414" y="473"/>
      <point x="433" y="404" type="curve"/>
      <point x="491" y="517" type="line"/>
      <point x="459" y="572"/>
      <point x="386" y="609"/>
      <point x="312" y="609" type="curve" smooth="yes"/>
      <point x="199" y="609"/>
      <point x="107" y="521"/>
      <point x="107" y="420" type="curve" smooth="yes"/>
      <point x="107" y="361"/>
      <point x="139" y="317"/>
      <point x="200" y="281" type="curve" smooth="yes"/>
      <point x="266" y="242" type="line" smooth="yes"/>
      <point x="301" y="221"/>
      <point x="318" y="201"/>
      <point x="318" y="170" type="curve" smooth="yes"/>
      <point x="318" y="121"/>
      <point x="274" y="82"/>
      <point x="218" y="82" type="curve" smooth="yes"/>
      <point x="151" y="82"/>
      <point x="90" y="132"/>
      <point x="68" y="204" type="curve"/>
      <point x="10" y="91" type="line"/>
      <point x="46" y="32"/>
      <point x="124" y="-8"/>
    </contour>
  </outline>
</glyph>
<glyph name="u" format="2">
  <advance width="720"/>
  <unicode hex="0075"/>
  <anchor x="285" y="0" name="bottom"/>
  <anchor x="499" y="0" name="ogonek"/>
  <anchor x="432" y="600" name="top"/>
  <anchor x="642" y="600" name="topright"/>
  <outline>
    <contour>
      <point x="264" y="-12" type="curve" smooth="yes"/>
      <point x="383" y="-12"/>
      <point x="509" y="73"/>
      <point x="551" y="247" type="curve"/>
      <point x="503" y="255" type="line"/>
      <point x="475" y="140"/>
      <point x="385" y="78"/>
      <point x="301" y="78" type="curve" smooth="yes"/>
      <point x="194" y="78"/>
      <point x="160" y="168"/>
      <point x="186" y="274" type="curve" smooth="yes"/>
      <point x="267" y="600" type="line"/>
      <point x="159" y="600" type="line"/>
      <point x="77" y="272" type="line" smooth="yes"/>
      <point x="39" y="120"/>
      <point x="102" y="-12"/>
    </contour>
    <contour>
      <point x="449" y="0" type="line"/>
      <point x="549" y="0" type="line"/>
      <point x="699" y="600" type="line"/>
      <point x="591" y="600" type="line"/>
      <point x="480" y="161" type="line"/>
      <point x="483" y="138" type="line"/>
    </contour>
  </outline>
</glyph>
<glyph name="x" format="2">
  <advance width="600"/>
  <unicode hex="0078"/>
  <outline>
    <contour>
      <point x="-51" y="0" type="line"/>
      <point x="81" y="0" type="line"/>
      <point x="197" y="131" type="line" smooth="yes"/>
      <point x="239" y="178"/>
      <point x="282" y="228"/>
      <point x="316" y="282" type="curve"/>
      <point x="290" y="282" type="line"/>
      <point x="296" y="228"/>
      <point x="316" y="178"/>
      <point x="333" y="131" type="curve" smooth="yes"/>
      <point x="381" y="0" type="line"/>
      <point x="501" y="0" type="line"/>
      <point x="370" y="318" type="line"/>
      <point x="630" y="600" type="line"/>
      <point x="498" y="600" type="line"/>
      <point x="418" y="508" type="line" smooth="yes"/>
      <point x="378" y="461"/>
      <point x="332" y="412"/>
      <point x="298" y="358" type="curve"/>
      <point x="318" y="358" type="line"/>
      <point x="312" y="412"/>
      <point x="295" y="462"/>
      <point x="277" y="508" type="curve" smooth="yes"/>
      <point x="242" y="600" type="line"/>
      <point x="124" y="600" type="line"/>
      <point x="240" y="318" type="line"/>
    </contour>
  </outline>
</glyph>
<glyph name="braceright" format="2">
  <advance width="480"/>
  <unicode hex="007D"/>
  <outline>
    <contour>
      <point x="-50" y="-186" type="line"/>
      <point x="115" y="-186"/>
      <point x="233" y="-113"/>
      <point x="274" y="57" type="curve" smooth="yes"/>
      <point x="288" y="115"/>
      <point x="288" y="162"/>
      <point x="300" y="211" type="curve" smooth="yes"/>
      <point x="321" y="295"/>
      <point x="366" y="323"/>
      <point x="449" y="349" type="curve"/>
      <point x="384" y="394"/>
      <point x="355" y="431"/>
      <point x="375" y="514" type="curve" smooth="yes"/>
      <point x="387" y="562"/>
      <point x="411" y="610"/>
      <point x="425" y="666" type="curve" smooth="yes"/>
      <point x="470" y="845"/>
      <point x="372" y="944"/>
      <point x="234" y="966" type="curve"/>
      <point x="193" y="882" type="line"/>
      <point x="287" y="869"/>
      <point x="360" y="821"/>
      <point x="323" y="670" type="curve" smooth="yes"/>
      <point x="309" y="616"/>
      <point x="286" y="570"/>
      <point x="274" y="524" type="curve" smooth="yes"/>
      <point x="245" y="409"/>
      <point x="306" y="352"/>
      <point x="404" y="340" type="curve"/>
      <point x="411" y="369" type="line"/>
      <point x="314" y="381"/>
      <point x="229" y="343"/>
      <point x="200" y="226" type="curve" smooth="yes"/>
      <point x="189" y="179"/>
      <point x="189" y="133"/>
      <point x="176" y="78" type="curve" smooth="yes"/>
      <point x="139" y="-74"/>
      <point x="44" y="-90"/>
      <point x="-50" y="-90" type="curve"/>
    </contour>
  </outline>
</glyph>
<glyph name="exclamdown" format="2">
  <advance width="480"/>
  <unicode hex="00A1"/>
  <outline>
    <contour>
      <point x="36" y="-300" type="line"/>
      <point x="144" y="-300" type="line"/>
      <point x="289" y="300" type="line"/>
      <point x="193" y="300" type="line"/>
    </contour>
    <contour>
      <point x="290" y="462" type="curve" smooth="yes"/>
      <point x="335" y="462"/>
      <point x="374" y="501"/>
      <point x="374" y="546" type="curve" smooth="yes"/>
      <point x="374" y="583"/>
      <point x="344" y="612"/>
      <point x="308" y="612" type="curve" smooth="yes"/>
      <point x="263" y="612"/>
      <point x="224" y="573"/>
      <point x="224" y="528" type="curve" smooth="yes"/>
      <point x="224" y="490"/>
      <point x="254" y="462"/>
    </contour>
  </outline>
</glyph>
<glyph name="yen" format="2">
  <advance width="750"/>
  <unicode hex="00A5"/>
  <anchor x="53" y="900" name="topleft"/>
  <outline>
    <contour>
      <point x="246" y="0" type="line"/>
      <point x="360" y="0" type="line"/>
      <point x="467" y="435" type="line"/>
      <point x="852" y="900" type="line"/>
      <point x="722" y="900" type="line"/>
      <point x="508" y="638" type="line" smooth="yes"/>
      <point x="469" y="590"/>
      <point x="438" y="550"/>
      <point x="392" y="472" type="curve"/>
      <point x="436" y="471" type="line"/>
      <point x="430" y="549"/>
      <point x="418" y="591"/>
      <point x="403" y="638" type="curve" smooth="yes"/>
      <point x="320" y="900" type="line"/>
      <point x="198" y="900" type="line"/>
      <point x="353" y="435" type="line"/>
    </contour>
    <contour>
      <point x="97" y="318" type="line"/>
      <point x="667" y="318" type="line"/>
      <point x="687" y="402" type="line"/>
      <point x="117" y="402" type="line"/>
    </contour>
    <contour>
      <point x="141" y="498" type="line"/>
      <point x="711" y="498" type="line"/>
      <point x="731" y="582" type="line"/>
      <point x="522" y="582" type="line"/>
      <point x="424" y="491" type="line"/>
      <point x="374" y="582" type="line"/>
      <point x="161" y="582" type="line"/>
    </contour>
  </outline>
</glyph>
<glyph name="ordfeminine" format="2">
  <advance width="480"/>
  <unicode hex="00AA"/>
  <outline>
    <contour>
      <point x="265" y="412" type="curve" smooth="yes"/>
      <point x="318" y="412"/>
      <point x="367" y="440"/>
      <point x="401" y="489" type="curve"/>
      <point x="388" y="508" type="line"/>
      <point x="367" y="420" type="line"/>
      <point x="451" y="420" type="line"/>
      <point x="539" y="780" type="line"/>
      <point x="455" y="780" type="line"/>
      <point x="431" y="679" type="line"/>
      <point x="459" y="681" type="line"/>
      <point x="447" y="748"/>
      <point x="395" y="788"/>
      <point x="325" y="788" type="curve" smooth="yes"/>
      <point x="215" y="788"/>
      <point x="117" y="688"/>
      <point x="117" y="576" type="curve" smooth="yes"/>
      <point x="117" y="484"/>
      <point x="183" y="412"/>
    </contour>
    <contour>
      <point x="296" y="490" type="curve" smooth="yes"/>
      <point x="242" y="490"/>
      <point x="201" y="530"/>
      <point x="201" y="587" type="curve" smooth="yes"/>
      <point x="201" y="653"/>
      <point x="256" y="710"/>
      <point x="322" y="710" type="curve" smooth="yes"/>
      <point x="378" y="710"/>
      <point x="419" y="668"/>
      <point x="419" y="613" type="curve" smooth="yes"/>
      <point x="419" y="547"/>
      <point x="361" y="490"/>
    </contour>
  </outline>
</glyph>
<glyph name="logicalnot" format="2">
  <advance width="750"/>
  <unicode hex="00AC"/>
  <outline>
    <contour>
      <point x="538" y="195" type="line"/>
      <point x="634" y="195" type="line"/>
      <point x="708" y="495" type="line"/>
      <point x="108" y="495" type="line"/>
      <point x="86" y="405" type="line"/>
      <point x="590" y="405" type="line"/>
    </contour>
  </outline>
</glyph>
<glyph name="degree" format="2">
  <advance width="480"/>
  <unicode hex="00B0"/>
  <outline>
    <contour>
      <point x="328" y="558" type="curve" smooth="yes"/>
      <point x="438" y="558"/>
      <point x="532" y="652"/>
      <point x="532" y="756" type="curve" smooth="yes"/>
      <point x="532" y="843"/>
      <point x="466" y="912"/>
      <point x="370" y="912" type="curve" smooth="yes"/>
      <point x="260" y="912"/>
      <point x="166" y="817"/>
      <point x="166" y="711" type="curve" smooth="yes"/>
      <point x="166" y="624"/>
      <point x="232" y="558"/>
    </contour>
    <contour>
      <point x="337" y="633" type="curve" smooth="yes"/>
      <point x="282" y="633"/>
      <point x="244" y="671"/>
      <point x="244" y="721" type="curve" smooth="yes"/>
      <point x="244" y="782"/>
      <point x="298" y="837"/>
      <point x="361" y="837" type="curve" smooth="yes"/>
      <point x="416" y="837"/>
      <point x="454" y="797"/>
      <point x="454" y="747" type="curve" smooth="yes"/>
      <point x="454" y="687"/>
      <point x="400" y="633"/>
    </contour>
  </outline>
</glyph>
<glyph name="guillemetright" format="2">
  <advance width="600"/>
  <unicode hex="00BB"/>
  <outline>
    <contour>
      <point x="-12" y="60" type="line"/>
      <point x="106" y="60" type="line"/>
      <point x="313" y="285" type="line"/>
      <point x="204" y="540" type="line"/>
      <point x="106" y="540" type="line"/>
      <point x="209" y="300" type="line"/>
    </contour>
    <contour>
      <point x="250" y="60" type="line"/>
      <point x="368" y="60" type="line"/>
      <point x="553" y="261" type="line"/>
      <point x="434" y="540" type="line"/>
      <point x="336" y="540" type="line"/>
      <point x="449" y="276" type="line"/>
    </contour>
  </outline>
</glyph>
<glyph name="AE" format="2">
  <advance width="1020"/>
  <unicode hex="00C6"/>
  <anchor x="325" y="0" name="bottom"/>
  <anchor x="606" y="0" name="ogonek"/>
  <anchor x="547" y="900" name="top"/>
  <anchor x="222" y="720" name="top-vertical"/>
  <anchor x="608" y="900" name="topleft"/>
  <outline>
    <contour>
      <point x="-57" y="0" type="line"/>
      <point x="68" y="0" type="line"/>
      <point x="417" y="540" type="line" smooth="yes"/>
      <point x="452" y="594"/>
      <point x="487" y="647"/>
      <point x="524" y="713" type="curve"/>
      <point x="524" y="647"/>
      <point x="527" y="594"/>
      <point x="530" y="540" type="curve" smooth="yes"/>
      <point x="562" y="0" type="line"/>
      <point x="915" y="0" type="line"/>
      <point x="940" y="102" type="line"/>
      <point x="660" y="102" type="line"/>
      <point x="636" y="504" type="line"/>
      <point x="865" y="504" type="line"/>
      <point x="890" y="606" type="line"/>
      <point x="630" y="606" type="line"/>
      <point x="619" y="798" type="line"/>
      <point x="908" y="798" type="line"/>
      <point x="933" y="900" type="line"/>
      <point x="535" y="900" type="line"/>
    </contour>
    <contour>
      <point x="202" y="267" type="line"/>
      <point x="574" y="267" type="line"/>
      <point x="562" y="362" type="line"/>
      <point x="261" y="362" type="line"/>
    </contour>
  </outline>
</glyph>
<glyph name="multiply" format="2">
  <advance width="750"/>
  <unicode hex="00D7"/>
  <outline>
    <contour>
      <point x="554" y="180" type="line"/>
      <point x="628" y="240" type="line"/>
      <point x="270" y="720" type="line"/>
      <point x="196" y="660" type="line"/>
    </contour>
    <contour>
      <point x="144" y="180" type="line"/>
      <point x="737" y="646" type="line"/>
      <point x="680" y="720" type="line"/>
      <point x="87" y="254" type="line"/>
    </contour>
  </outline>
</glyph>
<glyph name="ae" format="2">
  <advance width="1140"/>
  <unicode hex="00E6"/>
  <anchor x="495" y="0" name="bottom"/>
  <anchor x="591" y="600" name="top"/>
  <outline>
    <contour>
      <point x="771" y="-12" type="curve" smooth="yes"/>
      <point x="850" y="-12"/>
      <point x="922" y="15"/>
      <point x="981" y="59" type="curve"/>
      <point x="981" y="204" type="line"/>
      <point x="939" y="137"/>
      <point x="864" y="90"/>
      <point x="780" y="90" type="curve" smooth="yes"/>
      <point x="668" y="90"/>
      <point x="594" y="173"/>
      <point x="594" y="280" type="curve"/>
      <point x="588" y="280" type="line"/>
      <point x="588" y="404"/>
      <point x="697" y="516"/>
      <point x="830" y="516" type="curve" smooth="yes"/>
      <point x="949" y="516"/>
      <point x="1020" y="427"/>
      <point x="994" y="319" type="curve"/>
      <point x="1033" y="351" type="line"/>
      <point x="993" y="356"/>
      <point x="955" y="360"/>
      <point x="914" y="360" type="curve" smooth="yes"/>
      <point x="715" y="360" type="line" smooth="yes"/>
      <point x="658" y="360"/>
      <point x="598" y="352"/>
      <point x="538" y="340" type="curve"/>
      <point x="526" y="290" type="line"/>
      <point x="580" y="278"/>
      <point x="636" y="270"/>
      <point x="693" y="270" type="curve" smooth="yes"/>
      <point x="1085" y="270" type="line"/>
      <point x="1096" y="314" type="line" smooth="yes"/>
      <point x="1135" y="471"/>
      <point x="1030" y="612"/>
      <point x="849" y="612" type="curve" smooth="yes"/>
      <point x="750" y="612"/>
      <point x="658" y="570"/>
      <point x="591" y="505" type="curve"/>
      <point x="547" y="570"/>
      <point x="461" y="608"/>
      <point x="357" y="608" type="curve" smooth="yes"/>
      <point x="285" y="608"/>
      <point x="217" y="590"/>
      <point x="160" y="565" type="curve"/>
      <point x="160" y="451" type="line"/>
      <point x="213" y="488"/>
      <point x="273" y="512"/>
      <point x="344" y="512" type="curve" smooth="yes"/>
      <point x="442" y="512"/>
      <point x="504" y="467"/>
      <point x="517" y="404" type="curve"/>
      <point x="494" y="319" type="line"/>
      <point x="425" y="360"/>
      <point x="345" y="378"/>
      <point x="280" y="378" type="curve" smooth="yes"/>
      <point x="143" y="378"/>
      <point x="29" y="299"/>
      <point x="29" y="173" type="curve" smooth="yes"/>
      <point x="29" y="53"/>
      <point x="133" y="-8"/>
      <point x="252" y="-8" type="curve" smooth="yes"/>
      <point x="358" y="-8"/>
      <point x="462" y="40"/>
      <point x="525" y="126" type="curve"/>
      <point x="577" y="45"/>
      <point x="655" y="-12"/>
    </contour>
    <contour>
      <point x="273" y="80" type="curve" smooth="yes"/>
      <point x="208" y="80"/>
      <point x="138" y="111"/>
      <point x="138" y="182" type="curve" smooth="yes"/>
      <point x="138" y="248"/>
      <point x="198" y="288"/>
      <point x="286" y="288" type="curve" smooth="yes"/>
      <point x="344" y="288"/>
      <point x="413" y="270"/>
      <point x="476" y="236" type="curve"/>
      <point x="479" y="210" type="line"/>
      <point x="442" y="131"/>
      <point x="356" y="80"/>
    </contour>
  </outline>
</glyph>
<glyph name="kgreenlandic" format="2">
  <advance width="630"/>
  <unicode hex="0138"/>
  <anchor x="281" y="0" name="bottom"/>
  <anchor x="386" y="600" name="top"/>
  <outline>
    <contour>
      <point x="432" y="0" type="line"/>
      <point x="555" y="0" type="line"/>
      <point x="327" y="393" type="line"/>
      <point x="320" y="316" type="line"/>
      <point x="627" y="600" type="line"/>
      <point x="492" y="600" type="line"/>
      <point x="228" y="354" type="line"/>
    </contour>
    <contour>
      <point x="21" y="0" type="line"/>
      <point x="129" y="0" type="line"/>
      <point x="279" y="600" type="line"/>
      <point x="171" y="600" type="line"/>
    </contour>
  </outline>
</glyph>
<glyph name="oe" format="2">
  <advance width="1210"/>
  <unicode hex="0153"/>
  <anchor x="605" y="0" name="bottom"/>
  <anchor x="605" y="600" name="top"/>
  <outline>
    <contour>
      <point x="333" y="-12" type="curve" smooth="yes"/>
      <point x="435" y="-12"/>
      <point x="532" y="38"/>
      <point x="598" y="113" type="curve"/>
      <point x="647" y="37"/>
      <point x="736" y="-12"/>
      <point x="841" y="-12" type="curve" smooth="yes"/>
      <point x="920" y="-12"/>
      <point x="992" y="15"/>
      <point x="1051" y="59" type="curve"/>
      <point x="1051" y="204" type="line"/>
      <point x="1009" y="137"/>
      <point x="934" y="90"/>
      <point x="850" y="90" type="curve" smooth="yes"/>
      <point x="738" y="90"/>
      <point x="664" y="173"/>
      <point x="664" y="280" type="curve"/>
      <point x="658" y="280" type="line"/>
      <point x="658" y="404"/>
      <point x="767" y="516"/>
      <point x="900" y="516" type="curve" smooth="yes"/>
      <point x="1019" y="516"/>
      <point x="1090" y="427"/>
      <point x="1064" y="319" type="curve"/>
      <point x="1103" y="351" type="line"/>
      <point x="1063" y="356"/>
      <point x="1025" y="360"/>
      <point x="984" y="360" type="curve" smooth="yes"/>
      <point x="785" y="360" type="line" smooth="yes"/>
      <point x="728" y="360"/>
      <point x="668" y="352"/>
      <point x="608" y="340" type="curve"/>
      <point x="596" y="290" type="line"/>
      <point x="650" y="278"/>
      <point x="706" y="270"/>
      <point x="763" y="270" type="curve" smooth="yes"/>
      <point x="1155" y="270" type="line"/>
      <point x="1166" y="314" type="line" smooth="yes"/>
      <point x="1204" y="468"/>
      <point x="1103" y="612"/>
      <point x="919" y="612" type="curve" smooth="yes"/>
      <point x="811" y="612"/>
      <point x="711" y="562"/>
      <point x="643" y="487" type="curve"/>
      <point x="594" y="563"/>
      <point x="507" y="612"/>
      <point x="407" y="612" type="curve" smooth="yes"/>
      <point x="221" y="612"/>
      <point x="54" y="447"/>
      <point x="54" y="263" type="curve" smooth="yes"/>
      <point x="54" y="106"/>
      <point x="178" y="-12"/>
    </contour>
    <contour>
      <point x="344" y="90" type="curve" smooth="yes"/>
      <point x="238" y="90"/>
      <point x="164" y="173"/>
      <point x="164" y="274" type="curve" smooth="yes"/>
      <point x="164" y="398"/>
      <point x="275" y="510"/>
      <point x="396" y="510" type="curve" smooth="yes"/>
      <point x="502" y="510"/>
      <point x="576" y="427"/>
      <point x="576" y="326" type="curve" smooth="yes"/>
      <point x="576" y="202"/>
      <point x="465" y="90"/>
    </contour>
  </outline>
</glyph>
<glyph name="uhorn" format="2">
  <advance width="840"/>
  <unicode hex="01B0"/>
  <anchor x="287" y="0" name="bottom"/>
  <anchor x="435" y="600" name="top"/>
  <outline>
    <contour>
      <point x="264" y="-12" type="curve" smooth="yes"/>
      <point x="383" y="-12"/>
      <point x="509" y="73"/>
      <point x="551" y="247" type="curve"/>
      <point x="503" y="255" type="line"/>
      <point x="475" y="140"/>
      <point x="385" y="78"/>
      <point x="301" y="78" type="curve" smooth="yes"/>
      <point x="194" y="78"/>
      <point x="160" y="168"/>
      <point x="186" y="274" type="curve" smooth="yes"/>
      <point x="267" y="600" type="line"/>
      <point x="159" y="600" type="line"/>
      <point x="77" y="272" type="line" smooth="yes"/>
      <point x="39" y="120"/>
      <point x="102" y="-12"/>
    </contour>
    <contour>
      <point x="449" y="0" type="line"/>
      <point x="549" y="0" type="line"/>
      <point x="661" y="447" type="line"/>
      <point x="655" y="447" type="line"/>
      <point x="693" y="600" type="line"/>
      <point x="591" y="600" type="line"/>
      <point x="480" y="161" type="line"/>
      <point x="483" y="138" type="line"/>
    </contour>
    <contour>
      <point x="691" y="398" type="curve" smooth="yes"/>
      <point x="770" y="398"/>
      <point x="856" y="458"/>
      <point x="883" y="568" type="curve" smooth="yes"/>
      <point x="890" y="597"/>
      <point x="893" y="628"/>
      <point x="882" y="660" type="curve"/>
      <point x="792" y="660" type="line"/>
      <point x="803" y="627"/>
      <point x="799" y="592"/>
      <point x="793" y="568" type="curve" smooth="yes"/>
      <point x="777" y="503"/>
      <point x="732" y="476"/>
      <point x="692" y="476" type="curve" smooth="yes"/>
      <point x="660" y="476"/>
      <point x="636" y="494"/>
      <point x="627" y="529" type="curve"/>
      <point x="604" y="433" type="line"/>
      <point x="624" y="410"/>
      <point x="655" y="398"/>
    </contour>
  </outline>
</glyph>
<glyph name="acutecomb" format="2">
  <unicode hex="0301"/>
  <anchor x="435" y="600" name="_top"/>
  <outline>
    <contour>
      <point x="409" y="690" type="line"/>
      <point x="504" y="690" type="line"/>
      <point x="673" y="870" type="line"/>
      <point x="543" y="870" type="line"/>
    </contour>
  </outline>
</glyph>
<glyph name="macroncomb" format="2">
  <unicode hex="0304"/>
  <anchor x="435" y="600" name="_top"/>
  <outline>
    <contour>
      <point x="322" y="738" type="line"/>
      <point x="616" y="738" type="line"/>
      <point x="636" y="822" type="line"/>
      <point x="342" y="822" type="line"/>
    </contour>
  </outline>
</glyph>
<glyph name="hungarumlautcomb" format="2">
  <unicode hex="030B"/>
  <anchor x="385" y="600" name="_top"/>
  <outline>
    <contour>
      <point x="253" y="690" type="line"/>
      <point x="338" y="690" type="line"/>
      <point x="483" y="870" type="line"/>
      <point x="363" y="870" type="line"/>
    </contour>
    <contour>
      <point x="475" y="690" type="line"/>
      <point x="560" y="690" type="line"/>
      <point x="705" y="870" type="line"/>
      <point x="585" y="870" type="line"/>
    </contour>
  </outline>
</glyph>
<glyph name="commaturnedabovecomb" format="2">
  <unicode hex="0312"/>
  <anchor x="435" y="600" name="_top"/>
  <outline>
    <contour>
      <point x="412" y="720" type="curve"/>
      <point x="516" y="720" type="line"/>
      <point x="544" y="805"/>
      <point x="595" y="874"/>
      <point x="654" y="930" type="curve"/>
      <point x="538" y="930" type="line"/>
      <point x="483" y="868"/>
      <point x="437" y="798"/>
    </contour>
  </outline>
</glyph>
<glyph name="dotbelowcomb" format="2">
  <unicode hex="0323"/>
  <anchor x="285" y="0" name="_bottom"/>
  <anchor x="222" y="-252" name="bottom"/>
  <outline>
    <contour>
      <point x="232" y="-252" type="curve" smooth="yes"/>
      <point x="274" y="-252"/>
      <point x="312" y="-214"/>
      <point x="312" y="-171" type="curve" smooth="yes"/>
      <point x="312" y="-135"/>
      <point x="284" y="-108"/>
      <point x="248" y="-108" type="curve" smooth="yes"/>
      <point x="206" y="-108"/>
      <point x="168" y="-146"/>
      <point x="168" y="-189" type="curve" smooth="yes"/>
      <point x="168" y="-225"/>
      <point x="196" y="-252"/>
    </contour>
  </outline>
</glyph>
<glyph name="commaaccentcomb" format="2">
  <unicode hex="0326"/>
  <anchor x="284" y="0" name="_bottom"/>
  <anchor x="123" y="-330" name="bottom"/>
  <outline>
    <contour>
      <point x="65" y="-330" type="curve"/>
      <point x="181" y="-330" type="line"/>
      <point x="236" y="-268"/>
      <point x="282" y="-198"/>
      <point x="307" y="-120" type="curve"/>
      <point x="203" y="-120" type="line"/>
      <point x="175" y="-205"/>
      <point x="124" y="-274"/>
    </contour>
  </outline>
</glyph>
<glyph name="macronbelowcomb" format="2">
  <unicode hex="0331"/>
  <anchor x="285" y="0" name="_bottom"/>
  <outline>
    <contour>
      <point x="81" y="-222" type="line"/>
      <point x="381" y="-222" type="line"/>
      <point x="401" y="-138" type="line"/>
      <point x="101" y="-138" type="line"/>
    </contour>
  </outline>
</glyph>
<glyph name="strokelongcomb" format="2">
  <unicode hex="0336"/>
  <anchor x="437" y="450" name="_center"/>
  <outline>
    <contour>
      <point x="57" y="408" type="line"/>
      <point x="797" y="408" type="line"/>
      <point x="817" y="492" type="line"/>
      <point x="77" y="492" type="line"/>
    </contour>
  </outline>
</glyph>
<glyph name="slashlongcomb" format="2">
  <unicode hex="0338"/>
  <anchor x="278" y="300" name="_center"/>
  <outline>
    <contour>
      <point x="61" y="-18" type="line"/>
      <point x="550" y="564" type="line"/>
      <point x="489" y="617" type="line"/>
      <point x="0" y="35" type="line"/>
    </contour>
  </outline>
</glyph>
<glyph name="pi" format="2">
  <advance width="720"/>
  <unicode hex="03C0"/>
  <anchor x="285" y="0" name="bottom"/>
  <anchor x="436" y="600" name="top"/>
  <outline>
    <contour>
      <point x="441" y="0" type="line"/>
      <point x="549" y="0" type="line"/>
      <point x="700" y="600" type="line"/>
      <point x="592" y="600" type="line"/>
    </contour>
    <contour>
      <point x="21" y="0" type="line"/>
      <point x="129" y="0" type="line"/>
      <point x="280" y="600" type="line"/>
      <point x="172" y="600" type="line"/>
    </contour>
    <contour>
      <point x="207" y="498" type="line"/>
      <point x="615" y="498" type="line"/>
      <point x="640" y="600" type="line"/>
      <point x="232" y="600" type="line"/>
    </contour>
  </outline>
</glyph>
<glyph name="quotesinglbase" format="2">
  <advance width="270"/>
  <unicode hex="201A"/>
  <outline>
    <contour>
      <point x="-106" y="-150" type="curve"/>
      <point x="14" y="-150" type="line"/>
      <point x="90" y="-65"/>
      <point x="148" y="36"/>
      <point x="176" y="150" type="curve"/>
      <point x="68" y="150" type="line"/>
      <point x="36" y="22"/>
      <point x="-28" y="-76"/>
    </contour>
  </outline>
</glyph>
<glyph name="minute" format="2">
  <advance width="270"/>
  <unicode hex="2032"/>
  <outline>
    <contour>
      <point x="121" y="570" type="line"/>
      <point x="169" y="570" type="line"/>
      <point x="384" y="900" type="line"/>
      <point x="240" y="900" type="line"/>
    </contour>
  </outline>
</glyph>
<glyph name="lessequal" format="2">
  <advance width="750"/>
  <unicode hex="2264"/>
  <outline>
    <contour>
      <point x="640" y="218" type="line"/>
      <point x="662" y="308" type="line"/>
      <point x="398" y="452" type="line" smooth="yes"/>
      <point x="365" y="470"/>
      <point x="326" y="487"/>
      <point x="289" y="503" type="curve"/>
      <point x="335" y="520"/>
      <point x="382" y="537"/>
      <point x="423" y="555" type="curve" smooth="yes"/>
      <point x="759" y="700" type="line"/>
      <point x="784" y="804" type="line"/>
      <point x="112" y="510" type="line"/>
    </contour>
    <contour>
      <point x="36" y="77" type="line"/>
      <point x="606" y="77" type="line"/>
      <point x="627" y="163" type="line"/>
      <point x="57" y="163" type="line"/>
    </contour>
  </outline>
</glyph>
<glyph name="rightanglebracket-math" format="2">
  <advance width="480"/>
  <unicode hex="27E9"/>
  <outline>
    <contour>
      <point x="-76" y="-180" type="line"/>
      <point x="50" y="-180" type="line"/>
      <point x="454" y="390" type="line"/>
      <point x="330" y="960" type="line"/>
      <point x="228" y="960" type="line"/>
      <point x="346" y="416" type="line"/>
    </contour>
  </outline>
</glyph>
<glyph name="F.ss05" format="2">
  <advance width="720"/>
  <outline>
    <contour>
      <point x="126" y="0" type="line"/>
      <point x="240" y="0" type="line"/>
      <point x="240" y="424" type="line"/>
      <point x="630" y="424" type="line"/>
      <point x="630" y="526" type="line"/>
      <point x="240" y="526" type="line"/>
      <point x="240" y="798" type="line"/>
      <point x="690" y="798" type="line"/>
      <point x="690" y="900" type="line"/>
      <point x="126" y="900" type="line"/>
    </contour>
  </outline>
</glyph>
<glyph name="bar.titl" format="2">
  <advance width="480"/>
  <outline>
    <contour>
      <point x="214" y="-180" type="line"/>
      <point x="266" y="-180" type="line"/>
      <point x="266" y="960" type="line"/>
      <point x="214" y="960" type="line"/>
    </contour>
  </outline>
</glyph>
<glyph name="braceleft.titl" format="2">
  <advance width="480"/>
  <outline>
    <contour>
      <point x="289" y="-186" type="curve"/>
      <point x="312" y="-138" type="line"/>
      <point x="197" y="-122"/>
      <point x="118" y="-57"/>
      <point x="165" y="133" type="curve" smooth="yes"/>
      <point x="177" y="182"/>
      <point x="194" y="226"/>
      <point x="203" y="259" type="curve" smooth="yes"/>
      <point x="228" y="355"/>
      <point x="199" y="425"/>
      <point x="100" y="437" type="curve"/>
      <point x="98" y="425" type="line"/>
      <point x="195" y="413"/>
      <point x="256" y="470"/>
      <point x="281" y="569" type="curve" smooth="yes"/>
      <point x="291" y="609"/>
      <point x="290" y="637"/>
      <point x="305" y="695" type="curve" smooth="yes"/>
      <point x="353" y="884"/>
      <point x="441" y="918"/>
      <point x="572" y="918" type="curve"/>
      <point x="572" y="966" type="line"/>
      <point x="380" y="966"/>
      <point x="289" y="880"/>
      <point x="247" y="703" type="curve" smooth="yes"/>
      <point x="234" y="650"/>
      <point x="231" y="610"/>
      <point x="221" y="570" type="curve" smooth="yes"/>
      <point x="200" y="488"/>
      <point x="163" y="461"/>
      <point x="76" y="435" type="curve"/>
      <point x="144" y="390"/>
      <point x="166" y="354"/>
      <point x="148" y="275" type="curve" smooth="yes"/>
      <point x="139" y="235"/>
      <point x="120" y="191"/>
      <point x="108" y="140" type="curve" smooth="yes"/>
      <point x="60" y="-58"/>
      <point x="145" y="-160"/>
    </contour>
  </outline>
</glyph>
<glyph name="bracketleft.titl" format="2">
  <advance width="480"/>
  <outline>
    <contour>
      <point x="20" y="-180" type="line"/>
      <point x="300" y="-180" type="line"/>
      <point x="313" y="-126" type="line"/>
      <point x="91" y="-126" type="line"/>
      <point x="350" y="906" type="line"/>
      <point x="572" y="906" type="line"/>
      <point x="585" y="960" type="line"/>
      <point x="305" y="960" type="line"/>
    </contour>
  </outline>
</glyph>
<glyph name="bracketright.titl" format="2">
  <advance width="480"/>
  <outline>
    <contour>
      <point x="-60" y="-180" type="line"/>
      <point x="220" y="-180" type="line"/>
      <point x="505" y="960" type="line"/>
      <point x="225" y="960" type="line"/>
      <point x="212" y="906" type="line"/>
      <point x="434" y="906" type="line"/>
      <point x="175" y="-126" type="line"/>
      <point x="-47" y="-126" type="line"/>
    </contour>
  </outline>
</glyph>
<glyph name="brevecomb_gravecomb" format="2">
  <anchor x="435" y="600" name="_top"/>
  <outline>
    <contour>
      <point x="480" y="675" type="curve" smooth="yes"/>
      <point x="580" y="675"/>
      <point x="663" y="749"/>
      <point x="678" y="849" type="curve"/>
      <point x="592" y="849" type="line"/>
      <point x="589" y="800"/>
      <point x="535" y="754"/>
      <point x="483" y="754" type="curve" smooth="yes"/>
      <point x="432" y="754"/>
      <point x="394" y="797"/>
      <point x="401" y="849" type="curve"/>
      <point x="315" y="849" type="line"/>
      <point x="305" y="750"/>
      <point x="376" y="675"/>
    </contour>
    <contour>
      <point x="474" y="879" type="line"/>
      <point x="558" y="879" type="line"/>
      <point x="519" y="1029" type="line"/>
      <point x="407" y="1029" type="line"/>
    </contour>
  </outline>
</glyph>
<glyph name="caroncomb.alt" format="2">
  <anchor x="403" y="960" name="_topright"/>
  <outline>
    <contour>
      <point x="355" y="660" type="curve"/>
      <point x="463" y="660" type="line"/>
      <point x="539" y="745"/>
      <point x="597" y="845"/>
      <point x="625" y="960" type="curve"/>
      <point x="529" y="960" type="line"/>
      <point x="497" y="832"/>
      <point x="433" y="734"/>
    </contour>
  </outline>
</glyph>
<glyph name="cent.BRACKET.150" format="2">
  <advance width="750"/>
  <outline>
    <contour>
      <point x="436" y="138" type="curve" smooth="yes"/>
      <point x="517" y="138"/>
      <point x="589" y="165"/>
      <point x="648" y="209" type="curve"/>
      <point x="648" y="354" type="line"/>
      <point x="606" y="287"/>
      <point x="531" y="240"/>
      <point x="447" y="240" type="curve" smooth="yes"/>
      <point x="335" y="240"/>
      <point x="261" y="323"/>
      <point x="261" y="424" type="curve" smooth="yes"/>
      <point x="261" y="548"/>
      <point x="372" y="660"/>
      <point x="499" y="660" type="curve" smooth="yes"/>
      <point x="582" y="660"/>
      <point x="642" y="616"/>
      <point x="669" y="554" type="curve"/>
      <point x="726" y="671" type="line"/>
      <point x="675" y="727"/>
      <point x="600" y="762"/>
      <point x="516" y="762" type="curve" smooth="yes"/>
      <point x="324" y="762"/>
      <point x="151" y="597"/>
      <point x="151" y="413" type="curve" smooth="yes"/>
      <point x="151" y="256"/>
      <point x="275" y="138"/>
    </contour>
    <contour>
      <point x="304" y="0" type="line"/>
      <point x="388" y="0" type="line"/>
      <point x="433" y="180" type="line"/>
      <point x="349" y="180" type="line"/>
    </contour>
    <contour>
      <point x="483" y="720" type="line"/>
      <point x="567" y="720" type="line"/>
      <point x="604" y="870" type="line"/>
      <point x="520" y="870" type="line"/>
    </contour>
  </outline>
</glyph>
<glyph name="circumflexcomb_gravecomb" format="2">
  <anchor x="435" y="600" name="_top"/>
  <outline>
    <contour>
      <point x="269" y="690" type="line"/>
      <point x="387" y="690" type="line"/>
      <point x="422" y="718"/>
      <point x="448" y="746"/>
      <point x="488" y="787" type="curve"/>
      <point x="506" y="746"/>
      <point x="520" y="718"/>
      <point x="541" y="690" type="curve"/>
      <point x="647" y="690" type="line"/>
      <point x="512" y="909" type="line"/>
    </contour>
    <contour>
      <point x="695" y="819" type="line"/>
      <point x="779" y="819" type="line"/>
      <point x="740" y="969" type="line"/>
      <point x="628" y="969" type="line"/>
    </contour>
  </outline>
</glyph>
<glyph name="circumflexcomb_hookabovecomb" format="2">
  <anchor x="435" y="600" name="_top"/>
  <outline>
    <contour>
      <point x="268" y="690" type="line"/>
      <point x="386" y="690" type="line"/>
      <point x="421" y="718"/>
      <point x="448" y="746"/>
      <point x="487" y="787" type="curve"/>
      <point x="506" y="746"/>
      <point x="519" y="718"/>
      <point x="540" y="690" type="curve"/>
      <point x="646" y="690" type="line"/>
      <point x="511" y="909" type="line"/>
    </contour>
    <contour>
      <point x="657" y="819" type="curve"/>
      <point x="747" y="819" type="line"/>
      <point x="775" y="842"/>
      <point x="801" y="869"/>
      <point x="809" y="903" type="curve" smooth="yes"/>
      <point x="825" y="968"/>
      <point x="780" y="1008"/>
      <point x="715" y="1008" type="curve" smooth="yes"/>
      <point x="683" y="1008"/>
      <point x="646" y="999"/>
      <point x="614" y="978" type="curve"/>
      <point x="614" y="903" type="line"/>
      <point x="632" y="920"/>
      <point x="659" y="936"/>
      <point x="685" y="936" type="curve" smooth="yes"/>
      <point x="714" y="936"/>
      <point x="729" y="917"/>
      <point x="723" y="892" type="curve" smooth="yes"/>
      <point x="718" y="872"/>
      <point x="693" y="848"/>
    </contour>
  </outline>
</glyph>
<glyph name="dek.lf" format="2">
  <advance width="690"/>
  <outline>
    <contour>
      <point x="312" y="-7" type="curve" smooth="yes"/>
      <point x="467" y="-7"/>
      <point x="605" y="125"/>
      <point x="605" y="273" type="curve" smooth="yes"/>
      <point x="605" y="302"/>
      <point x="599" y="333"/>
      <point x="588" y="366" type="curve"/>
      <point x="452" y="366" type="line"/>
      <point x="481" y="337"/>
      <point x="497" y="302"/>
      <point x="497" y="265" type="curve" smooth="yes"/>
      <point x="497" y="176"/>
      <point x="413" y="94"/>
      <point x="322" y="94" type="curve" smooth="yes"/>
      <point x="244" y="94"/>
      <point x="185" y="153"/>
      <point x="185" y="231" type="curve" smooth="yes"/>
      <point x="185" y="279"/>
      <point x="205" y="317"/>
      <point x="262" y="378" type="curve" smooth="yes"/>
      <point x="751" y="900" type="line"/>
      <point x="221" y="900" type="line"/>
      <point x="196" y="798" type="line"/>
      <point x="584" y="798" type="line"/>
      <point x="569" y="835" type="line"/>
      <point x="188" y="446" type="line" smooth="yes"/>
      <point x="110" y="366"/>
      <point x="75" y="295"/>
      <point x="75" y="219" type="curve" smooth="yes"/>
      <point x="75" y="91"/>
      <point x="178" y="-7"/>
    </contour>
  </outline>
</glyph>
<glyph name="dieresiscomb.Adieresis.case" format="2">
  <anchor x="420" y="900" name="_top"/>
  <anchor x="420" y="1071" name="top"/>
  <outline>
    <contour>
      <point x="568" y="918" type="curve" smooth="yes"/>
      <point x="610" y="918"/>
      <point x="648" y="956"/>
      <point x="648" y="999" type="curve" smooth="yes"/>
      <point x="648" y="1035"/>
      <point x="620" y="1062"/>
      <point x="584" y="1062" type="curve" smooth="yes"/>
      <point x="542" y="1062"/>
      <point x="504" y="1024"/>
      <point x="504" y="981" type="curve" smooth="yes"/>
      <point x="504" y="945"/>
      <point x="532" y="918"/>
    </contour>
    <contour>
      <point x="256" y="918" type="curve" smooth="yes"/>
      <point x="298" y="918"/>
      <point x="336" y="956"/>
      <point x="336" y="999" type="curve" smooth="yes"/>
      <point x="336" y="1035"/>
      <point x="308" y="1062"/>
      <point x="272" y="1062" type="curve" smooth="yes"/>
      <point x="230" y="1062"/>
      <point x="192" y="1024"/>
      <point x="192" y="981" type="curve" smooth="yes"/>
      <point x="192" y="945"/>
      <point x="220" y="918"/>
    </contour>
  </outline>
</glyph>
<glyph name="dieresiscomb.vertical.A" format="2">
  <anchor x="360" y="540" name="_top-vertical"/>
  <outline>
    <contour>
      <point x="283" y="366" type="curve" smooth="yes"/>
      <point x="324" y="366"/>
      <point x="360" y="402"/>
      <point x="360" y="444" type="curve" smooth="yes"/>
      <point x="360" y="478"/>
      <point x="333" y="504"/>
      <point x="299" y="504" type="curve" smooth="yes"/>
      <point x="258" y="504"/>
      <point x="222" y="468"/>
      <point x="222" y="426" type="curve" smooth="yes"/>
      <point x="222" y="392"/>
      <point x="249" y="366"/>
    </contour>
    <contour>
      <point x="421" y="576" type="curve" smooth="yes"/>
      <point x="462" y="576"/>
      <point x="498" y="612"/>
      <point x="498" y="654" type="curve" smooth="yes"/>
      <point x="498" y="688"/>
      <point x="471" y="714"/>
      <point x="437" y="714" type="curve" smooth="yes"/>
      <point x="396" y="714"/>
      <point x="360" y="678"/>
      <point x="360" y="636" type="curve" smooth="yes"/>
      <point x="360" y="602"/>
      <point x="387" y="576"/>
    </contour>
  </outline>
</glyph>
<glyph name="dotaccentcomb_macroncomb" format="2">
  <anchor x="435" y="600" name="_top"/>
  <outline>
    <contour>
      <point x="472" y="708" type="curve" smooth="yes"/>
      <point x="514" y="708"/>
      <point x="552" y="746"/>
      <point x="552" y="789" type="curve" smooth="yes"/>
      <point x="552" y="825"/>
      <point x="524" y="852"/>
      <point x="488" y="852" type="curve" smooth="yes"/>
      <point x="446" y="852"/>
      <point x="408" y="814"/>
      <point x="408" y="771" type="curve" smooth="yes"/>
      <point x="408" y="735"/>
      <point x="436" y="708"/>
    </contour>
    <contour>
      <point x="343" y="921" type="line"/>
      <point x="685" y="921" type="line"/>
      <point x="704" y="999" type="line"/>
      <point x="362" y="999" type="line"/>
    </contour>
  </outline>
</glyph>
<glyph name="emdash.case" format="2">
  <advance width="1440"/>
  <outline>
    <contour>
      <point x="85" y="399" type="line"/>
      <point x="1405" y="399" type="line"/>
      <point x="1431" y="501" type="line"/>
      <point x="111" y="501" type="line"/>
    </contour>
  </outline>
</glyph>
<glyph name="emdash.titl.case" format="2">
  <advance width="1440"/>
  <outline>
    <contour>
      <point x="91" y="423" type="line"/>
      <point x="1411" y="423" type="line"/>
      <point x="1425" y="477" type="line"/>
      <point x="105" y="477" type="line"/>
    </contour>
  </outline>
</glyph>
<glyph name="endash.case" format="2">
  <advance width="720"/>
  <outline>
    <contour>
      <point x="85" y="402" type="line"/>
      <point x="685" y="402" type="line"/>
      <point x="709" y="498" type="line"/>
      <point x="109" y="498" type="line"/>
    </contour>
  </outline>
</glyph>
<glyph name="endash.titl.case" format="2">
  <advance width="720"/>
  <outline>
    <contour>
      <point x="91" y="423" type="line"/>
      <point x="691" y="423" type="line"/>
      <point x="705" y="477" type="line"/>
      <point x="105" y="477" type="line"/>
    </contour>
  </outline>
</glyph>
<glyph name="four.numr" format="2">
  <advance width="480"/>
  <outline>
    <contour>
      <point x="302" y="420" type="line"/>
      <point x="386" y="420" type="line"/>
      <point x="414" y="534" type="line"/>
      <point x="484" y="534" type="line"/>
      <point x="501" y="605" type="line"/>
      <point x="429" y="605" type="line"/>
      <point x="465" y="748" type="line"/>
      <point x="374" y="704" type="line"/>
      <point x="349" y="605" type="line"/>
      <point x="189" y="605" type="line"/>
      <point x="211" y="578" type="line"/>
      <point x="457" y="900" type="line"/>
      <point x="359" y="900" type="line"/>
      <point x="82" y="534" type="line"/>
      <point x="330" y="534" type="line"/>
    </contour>
  </outline>
</glyph>
<glyph name="fraction.titl" format="2">
  <advance width="120"/>
  <outline>
    <contour>
      <point x="-354" y="0" type="line"/>
      <point x="-288" y="0" type="line"/>
      <point x="546" y="900" type="line"/>
      <point x="480" y="900" type="line"/>
    </contour>
  </outline>
</glyph>
<glyph name="hookabovecomb.case" format="2">
  <anchor x="510" y="900" name="_top"/>
  <outline>
    <contour>
      <point x="494" y="990" type="curve"/>
      <point x="605" y="990" type="line"/>
      <point x="641" y="1023"/>
      <point x="670" y="1063"/>
      <point x="670" y="1110" type="curve" smooth="yes"/>
      <point x="670" y="1173"/>
      <point x="614" y="1212"/>
      <point x="535" y="1212" type="curve" smooth="yes"/>
      <point x="505" y="1212"/>
      <point x="474" y="1206"/>
      <point x="447" y="1192" type="curve"/>
      <point x="449" y="1104" type="line"/>
      <point x="466" y="1119"/>
      <point x="490" y="1131"/>
      <point x="517" y="1131" type="curve" smooth="yes"/>
      <point x="552" y="1131"/>
      <point x="570" y="1112"/>
      <point x="570" y="1088" type="curve" smooth="yes"/>
      <point x="570" y="1060"/>
      <point x="542" y="1030"/>
    </contour>
  </outline>
</glyph>
<glyph name="hyphen.titl.case" format="2">
  <advance width="360"/>
  <outline>
    <contour>
      <point x="61" y="424" type="line"/>
      <point x="361" y="424" type="line"/>
      <point x="373" y="476" type="line"/>
      <point x="73" y="476" type="line"/>
    </contour>
  </outline>
</glyph>
<glyph name="hyphen.titl" format="2">
  <advance width="360"/>
  <outline>
    <contour>
      <point x="24" y="274" type="line"/>
      <point x="324" y="274" type="line"/>
      <point x="336" y="326" type="line"/>
      <point x="36" y="326" type="line"/>
    </contour>
  </outline>
</glyph>
<glyph name="less.titl" format="2">
  <advance width="750"/>
  <outline>
    <contour>
      <point x="628" y="173" type="line"/>
      <point x="641" y="224" type="line"/>
      <point x="331" y="394" type="line" smooth="yes"/>
      <point x="299" y="412"/>
      <point x="263" y="429"/>
      <point x="226" y="446" type="curve"/>
      <point x="271" y="462"/>
      <point x="315" y="479"/>
      <point x="357" y="497" type="curve" smooth="yes"/>
      <point x="750" y="667" type="line"/>
      <point x="764" y="729" type="line"/>
      <point x="126" y="452" type="line"/>
    </contour>
  </outline>
</glyph>
<glyph name="multiply.titl" format="2">
  <advance width="750"/>
  <outline>
    <contour>
      <point x="148" y="208" type="line"/>
      <point x="705" y="649" type="line"/>
      <point x="674" y="692" type="line"/>
      <point x="117" y="251" type="line"/>
    </contour>
    <contour>
      <point x="558" y="208" type="line"/>
      <point x="601" y="242" type="line"/>
      <point x="264" y="692" type="line"/>
      <point x="221" y="658" type="line"/>
    </contour>
  </outline>
</glyph>
<glyph name="o.slash" format="2">
  <advance width="740"/>
  <anchor x="370" y="0" name="bottom"/>
  <anchor x="370" y="300" name="center"/>
  <anchor x="667" y="10" name="ogonek"/>
  <anchor x="370" y="600" name="top"/>
  <anchor x="723" y="600" name="topright"/>
  <outline>
    <contour>
      <point x="370" y="-12" type="curve" smooth="yes"/>
      <point x="545" y="-12"/>
      <point x="686" y="127"/>
      <point x="686" y="300" type="curve" smooth="yes"/>
      <point x="686" y="473"/>
      <point x="545" y="612"/>
      <point x="370" y="612" type="curve" smooth="yes"/>
      <point x="195" y="612"/>
      <point x="54" y="473"/>
      <point x="54" y="300" type="curve" smooth="yes"/>
      <point x="54" y="127"/>
      <point x="195" y="-12"/>
    </contour>
    <contour>
      <point x="370" y="84" type="curve" smooth="yes"/>
      <point x="251" y="84"/>
      <point x="156" y="181"/>
      <point x="156" y="300" type="curve" smooth="yes"/>
      <point x="156" y="419"/>
      <point x="251" y="516"/>
      <point x="370" y="516" type="curve" smooth="yes"/>
      <point x="488" y="516"/>
      <point x="584" y="419"/>
      <point x="584" y="300" type="curve" smooth="yes"/>
      <point x="584" y="181"/>
      <point x="488" y="84"/>
    </contour>
  </outline>
</glyph>
<glyph name="parenright.titl" format="2">
  <advance width="480"/>
  <outline>
    <contour>
      <point x="-23" y="-180" type="curve"/>
      <point x="54" y="-180" type="line"/>
      <point x="269" y="50"/>
      <point x="394" y="342"/>
      <point x="394" y="638" type="curve" smooth="yes"/>
      <point x="394" y="750"/>
      <point x="376" y="859"/>
      <point x="341" y="960" type="curve"/>
      <point x="278" y="960" type="line"/>
      <point x="316" y="860"/>
      <point x="337" y="751"/>
      <point x="337" y="637" type="curve" smooth="yes"/>
      <point x="337" y="361"/>
      <point x="217" y="48"/>
    </contour>
  </outline>
</glyph>
<glyph name="t_t" format="2">
  <advance width="840"/>
  <outline>
    <contour>
      <point x="481" y="0" type="line"/>
      <point x="589" y="0" type="line"/>
      <point x="726" y="549" type="line"/>
      <point x="723" y="549" type="line"/>
      <point x="784" y="800" type="line"/>
      <point x="682" y="800" type="line"/>
      <point x="621" y="550" type="line"/>
      <point x="618" y="550" type="line"/>
    </contour>
    <contour>
      <point x="91" y="0" type="line"/>
      <point x="199" y="0" type="line"/>
      <point x="336" y="549" type="line"/>
      <point x="333" y="549" type="line"/>
      <point x="394" y="800" type="line"/>
      <point x="292" y="800" type="line"/>
      <point x="231" y="550" type="line"/>
      <point x="228" y="550" type="line"/>
    </contour>
    <contour>
      <point x="82" y="510" type="line"/>
      <point x="862" y="510" type="line"/>
      <point x="885" y="600" type="line"/>
      <point x="105" y="600" type="line"/>
    </contour>
  </outline>
</glyph>
<glyph name="three.lf" format="2">
  <advance width="690"/>
  <outline>
    <contour>
      <point x="272" y="-12" type="curve" smooth="yes"/>
      <point x="462" y="-12"/>
      <point x="623" y="152"/>
      <point x="623" y="329" type="curve" smooth="yes"/>
      <point x="623" y="445"/>
      <point x="551" y="539"/>
      <point x="445" y="574" type="curve"/>
      <point x="702" y="900" type="line"/>
      <point x="258" y="900" type="line"/>
      <point x="235" y="804" type="line"/>
      <point x="561" y="804" type="line"/>
      <point x="539" y="844" type="line"/>
      <point x="257" y="484" type="line"/>
      <point x="280" y="492"/>
      <point x="306" y="498"/>
      <point x="333" y="498" type="curve" smooth="yes"/>
      <point x="439" y="498"/>
      <point x="514" y="417"/>
      <point x="514" y="319" type="curve" smooth="yes"/>
      <point x="514" y="201"/>
      <point x="409" y="90"/>
      <point x="283" y="90" type="curve" smooth="yes"/>
      <point x="168" y="90"/>
      <point x="101" y="181"/>
      <point x="106" y="295" type="curve"/>
      <point x="10" y="174" type="line"/>
      <point x="48" y="53"/>
      <point x="161" y="-12"/>
    </contour>
  </outline>
</glyph>
<glyph name="three.numr" format="2">
  <advance width="480"/>
  <outline>
    <contour>
      <point x="272" y="408" type="curve" smooth="yes"/>
      <point x="380" y="408"/>
      <point x="473" y="503"/>
      <point x="473" y="606" type="curve" smooth="yes"/>
      <point x="473" y="675"/>
      <point x="429" y="729"/>
      <point x="366" y="742" type="curve"/>
      <point x="357" y="708" type="line"/>
      <point x="515" y="900" type="line"/>
      <point x="234" y="900" type="line"/>
      <point x="214" y="820" type="line"/>
      <point x="363" y="820" type="line"/>
      <point x="244" y="670" type="line"/>
      <point x="262" y="676"/>
      <point x="279" y="680"/>
      <point x="299" y="680" type="curve" smooth="yes"/>
      <point x="349" y="680"/>
      <point x="386" y="648"/>
      <point x="386" y="600" type="curve" smooth="yes"/>
      <point x="386" y="542"/>
      <point x="338" y="488"/>
      <point x="279" y="488" type="curve" smooth="yes"/>
      <point x="222" y="488"/>
      <point x="177" y="532"/>
      <point x="184" y="593" type="curve"/>
      <point x="114" y="510" type="line"/>
      <point x="139" y="449"/>
      <point x="200" y="408"/>
    </contour>
  </outline>
</glyph>
